<?xml version="1.0" encoding="UTF-8" standalone="no"?>
<!-- Created with Inkscape (http://www.inkscape.org/) -->

<svg
   width="8.4666662mm"
   height="8.4666691mm"
   viewBox="0 0 8.4666663 8.4666691"
   version="1.1"
   id="svg5"
   xml:space="preserve"
   sodipodi:docname="savvakisweblogo-favicon.svg"
   inkscape:version="1.2.2 (732a01da63, 2022-12-09)"
   xmlns:inkscape="http://www.inkscape.org/namespaces/inkscape"
   xmlns:sodipodi="http://sodipodi.sourceforge.net/DTD/sodipodi-0.dtd"
   xmlns="http://www.w3.org/2000/svg"
   xmlns:svg="http://www.w3.org/2000/svg"><sodipodi:namedview
     id="namedview300"
     pagecolor="#ffffff"
     bordercolor="#000000"
     borderopacity="0.25"
     inkscape:showpageshadow="2"
     inkscape:pageopacity="0.0"
     inkscape:pagecheckerboard="0"
     inkscape:deskcolor="#d1d1d1"
     inkscape:document-units="mm"
     showgrid="false"
     inkscape:zoom="12.127433"
     inkscape:cx="5.0711473"
     inkscape:cy="12.368652"
     inkscape:window-width="1920"
     inkscape:window-height="1009"
     inkscape:window-x="-8"
     inkscape:window-y="-8"
     inkscape:window-maximized="1"
     inkscape:current-layer="g2087" /><defs
     id="defs2" /><g
     id="layer1"
     transform="translate(-52.565284,-131.40647)"><g
       id="g2087"
       transform="matrix(0.9578883,0,0,0.9578883,8.7771816,0.80708511)"
       style="stroke-width:1.00012;stroke-dasharray:none"><g
         id="g2077"
         style="stroke-width:1.00012;stroke-dasharray:none"><path
           id="rect1330"
           style="opacity:1;stroke-width:1.71691;stroke-dasharray:none"
           d="m 46.360839,136.34093 h 7.543531 c 0.358814,0 0.647678,0.34366 0.647678,0.77056 v 7.29775 c 0,0.4269 -0.288864,0.77058 -0.647678,0.77058 h -7.543531 c -0.358814,0 -0.647678,-0.34368 -0.647678,-0.77058 v -7.29775 c 0,-0.4269 0.288864,-0.77056 0.647678,-0.77056 z" /></g><g
         id="g1337"
         transform="matrix(2.0614624,0,0,2.0614624,20.896417,-116.42449)"
         style="fill:#ffffff;stroke-width:1.11924;stroke-dasharray:none"><path
           style="opacity:1;fill:#ffffff;stroke-width:1.11924;stroke-dasharray:none"
           d="m 13.009293,125.69991 c 0.200523,-0.31057 0.601649,-0.93182 0.898853,-1.35378 0.297203,-0.42197 0.490426,-0.64455 0.655574,-0.80969 0.165148,-0.16514 0.302111,-0.27275 0.388922,-0.33141 0.08681,-0.0587 0.123855,-0.0685 0.176447,-0.0755 0.05259,-0.007 0.121109,-0.0114 0.181106,0.003 0.06,0.0139 0.111375,0.0457 0.144142,0.1032 0.03277,0.0575 0.04746,0.14078 0.0486,0.21527 0.0011,0.0745 -0.01112,0.14067 -0.09547,0.27253 -0.08435,0.13185 -0.240901,0.32998 -0.492799,0.59166 -0.251897,0.26167 -0.59921,0.58697 -0.950185,0.89637 -0.350975,0.30939 -0.705629,0.6029 -0.897437,0.75082 -0.191809,0.14792 -0.221162,0.15025 -0.241683,0.14467 -0.02052,-0.006 -0.03322,-0.0209 -0.03472,-0.0383 -0.0015,-0.0174 0.0082,-0.0369 0.01319,-0.0468 0.0049,-0.01 0.0049,-0.0111 0.205462,-0.32162 z"
           id="path1249" /><path
           style="opacity:1;fill:#ffffff;stroke-width:1.11924;stroke-dasharray:none"
           d="m 12.53842,125.3519 c -0.01041,0.0132 -0.03112,0.0395 -0.05645,0.0452 -0.02533,0.006 -0.0558,-0.01 -0.07547,-0.0509 -0.01966,-0.0414 -0.02797,-0.10924 -0.03356,-0.25477 -0.0056,-0.14552 -0.0084,-0.36856 0.0082,-0.49564 0.01663,-0.12708 0.05252,-0.1575 0.09364,-0.1637 0.04112,-0.006 0.08708,0.0119 0.121494,0.0502 0.03441,0.0383 0.05792,0.0964 0.07028,0.15603 0.01235,0.0596 0.01372,0.12041 0.01091,0.19168 -0.0028,0.0713 -0.0098,0.15318 -0.02085,0.22225 -0.01109,0.0691 -0.02639,0.12606 -0.04507,0.17159 -0.01867,0.0455 -0.04081,0.0802 -0.05187,0.0975 -0.01105,0.0173 -0.01089,0.0173 -0.0213,0.0305 z"
           id="path1257" /><path
           style="opacity:1;fill:#ffffff;stroke-width:1.11924;stroke-dasharray:none"
           d="m 14.205862,125.65996 c 0.226967,-0.11263 0.6807,-0.3378 0.945611,-0.45978 0.264911,-0.12198 0.340747,-0.14076 0.407746,-0.15311 0.067,-0.0124 0.125037,-0.0183 0.184363,-0.0157 0.05933,0.003 0.119848,0.0137 0.165016,0.0348 0.04517,0.0211 0.07502,0.0518 0.08413,0.094 0.0091,0.0423 -0.0019,0.0958 -0.02451,0.13957 -0.02256,0.0437 -0.05662,0.0778 -0.106841,0.11063 -0.05022,0.0328 -0.116742,0.0644 -0.226765,0.10492 -0.110023,0.0405 -0.263523,0.09 -0.489092,0.14801 -0.225568,0.058 -0.523221,0.12452 -0.72535,0.16678 -0.202128,0.0423 -0.308687,0.0602 -0.376222,0.0679 -0.06753,0.008 -0.09613,0.005 -0.115048,-0.007 -0.01891,-0.0119 -0.02793,-0.0336 -0.01801,-0.0551 0.0099,-0.0215 0.03903,-0.042 0.05352,-0.0522 0.01449,-0.0102 0.01449,-0.0114 0.241457,-0.12399 z"
           id="path1310" /><path
           style="opacity:1;fill:#ffffff;stroke-width:1.11924;stroke-dasharray:none"
           d="m 14.414345,126.35099 c 0.02213,0.006 0.0666,0.019 0.137168,0.0275 0.07057,0.008 0.167627,0.0128 0.272514,0.0146 0.104888,0.002 0.217664,0.001 0.28835,-0.0102 0.07069,-0.0114 0.09964,-0.0334 0.116915,-0.0673 0.01728,-0.0339 0.02289,-0.0796 0.01896,-0.12237 -0.0039,-0.0427 -0.01783,-0.0826 -0.04687,-0.10835 -0.02903,-0.0258 -0.07393,-0.0372 -0.155903,-0.0363 -0.08197,8.4e-4 -0.201101,0.0141 -0.307927,0.0299 -0.106825,0.0158 -0.20136,0.0341 -0.263914,0.054 -0.06255,0.0199 -0.09281,0.0413 -0.112719,0.0625 -0.01991,0.0212 -0.02928,0.0418 -0.0298,0.0638 -5.23e-4,0.022 0.0077,0.0448 0.01931,0.0588 0.01161,0.014 0.0265,0.0197 0.03411,0.0226 0.0076,0.003 0.0077,0.005 0.02981,0.0109 z"
           id="path1314" /><path
           style="opacity:1;fill:#ffffff;stroke-width:1.11924;stroke-dasharray:none"
           d="m 13.041843,124.71009 c 0.04786,-0.0994 0.143669,-0.29849 0.213421,-0.4533 0.06975,-0.1548 0.113466,-0.26546 0.145477,-0.35559 0.03201,-0.0901 0.05223,-0.15955 0.06166,-0.20655 0.0094,-0.047 0.008,-0.0724 0.0059,-0.1006 -0.0021,-0.0282 -0.0052,-0.0608 -0.03575,-0.0863 -0.03056,-0.0255 -0.08905,-0.0441 -0.146155,-0.0172 -0.0571,0.0269 -0.112058,0.0996 -0.160873,0.22619 -0.04882,0.12662 -0.0916,0.30705 -0.126975,0.44336 -0.03537,0.1363 -0.06324,0.22825 -0.08322,0.31573 -0.01999,0.0875 -0.03209,0.17034 -0.03995,0.22895 -0.0079,0.0586 -0.01152,0.093 -0.0085,0.11963 0.003,0.0266 0.01238,0.0454 0.0268,0.0531 0.01442,0.008 0.03369,0.005 0.05115,-0.008 0.01746,-0.0129 0.03342,-0.0367 0.04141,-0.0486 0.008,-0.0119 0.0078,-0.0118 0.05563,-0.11125 z"
           id="path1326" /></g></g></g></svg>
